# sagittal silhouette (montage frame, mm)  co-reg RMS=0.00 mm
# Y Z
-122.697 -3.049
-122.355 -22.580
-116.322 -120.015
-113.410 -128.034
-112.366 -129.713
-80.026 -142.156
-19.840 -165.164
-16.770 -165.451
-4.905 -165.183
44.349 -156.077
50.338 -151.000
55.482 -144.905
96.324 -81.615
91.481 -7.703
89.866 8.735
89.111 15.559
86.835 24.499
85.768 28.533
82.475 38.996
76.056 50.875
68.046 61.128
58.071 70.705
46.594 79.364
34.353 85.922
22.080 91.461
9.876 95.925
-1.412 99.623
-11.790 102.445
-22.284 104.750
-30.506 105.118
-38.709 104.852
-42.859 104.257
-48.096 103.178
-58.512 100.061
-63.980 97.525
-69.895 94.561
-81.204 87.121
-91.842 77.084
-96.225 70.188
-100.506 63.299
-108.807 49.125
-115.330 33.180
-120.084 15.780
-121.734 6.606
